Coordinates
version=1
nRows=29
nColumns=22
inDegrees=yes

Units are S.I. units (second, meters, Newtons, ...)
If the header above contains a line with 'inDegrees', this indicates whether rotational values are in degrees (yes) or radians (no).

endheader
time	pelvis_tilt	pelvis_list	pelvis_rotation	pelvis_tx	pelvis_ty	pelvis_tz	hip_flexion_r	hip_adduction_r	hip_rotation_r	knee_angle_r	ankle_angle_r	subtalar_angle_r	hip_flexion_l	hip_adduction_l	hip_rotation_l	knee_angle_l	ankle_angle_l	subtalar_angle_l	lumbar_extension	lumbar_bending	lumbar_rotation
      0.01000000	     -7.82375772	      6.18656555	    -47.11090914	     -1.03498231	      0.97943301	     -0.24479955	     19.32721078	      2.71534662	     -6.18426380	    -22.42893535	     18.11562404	     -8.71762155	     17.65918290	     -0.18420132	     -3.59029074	    -19.12699609	     19.14507336	     -4.33646975	      3.27778290	      2.00856471	      5.46187729
      0.02000000	     -7.83059262	      6.17916692	    -47.11320449	     -1.03502376	      0.97942555	     -0.24478649	     19.33239603	      2.72620985	     -6.20430439	    -22.43807949	     18.11041373	     -8.70392778	     17.66010922	     -0.20000992	     -3.61231337	    -19.12743800	     19.12610968	     -4.31629189	      3.27637880	      2.02045127	      5.47688717
      0.03000000	     -7.83116440	      6.17919718	    -47.10990958	     -1.03507080	      0.97941378	     -0.24478016	     19.33435924	      2.72941399	     -6.20465544	    -22.43743446	     18.11015178	     -8.70246818	     17.66025076	     -0.20167814	     -3.61428877	    -19.12340238	     19.12760482	     -4.31382966	      3.27468870	      2.01859590	      5.47951516
      0.04000000	     -7.83547065	      6.17703028	    -47.11522388	     -1.03510777	      0.97940401	     -0.24474837	     19.33969177	      2.73654233	     -6.21565180	    -22.44362130	     18.11021140	     -8.69695354	     17.65020431	     -0.21032737	     -3.62372781	    -19.10233005	     19.13442026	     -4.30039320	      3.28053939	      2.02562535	      5.49774089
      0.05000000	     -7.83541259	      6.17679382	    -47.10959456	     -1.03517173	      0.97939623	     -0.24474532	     19.34256023	      2.73982539	     -6.21680895	    -22.44475273	     18.11026193	     -8.69638400	     17.65069053	     -0.21242838	     -3.62637471	    -19.09727467	     19.13515000	     -4.29852365	      3.27686442	      2.02336075	      5.50109915
      0.06000000	     -7.83538723	      6.17584313	    -47.10248057	     -1.03525094	      0.97939178	     -0.24474047	     19.34731491	      2.74335523	     -6.22082119	    -22.44930262	     18.11035794	     -8.69619673	     17.65036851	     -0.21682290	     -3.62940820	    -19.08976570	     19.13551001	     -4.29617701	      3.27255644	      2.02038058	      5.50543021
      0.07000000	     -7.83497097	      6.17485073	    -47.09253199	     -1.03535259	      0.97939465	     -0.24474542	     19.35447331	      2.74702207	     -6.22607588	    -22.45589952	     18.11006894	     -8.69647435	     17.65147073	     -0.22135889	     -3.63150203	    -19.08239102	     19.13499413	     -4.29388708	      3.26466605	      2.01534559	      5.50872199
      0.08000000	     -7.82561169	      6.17383786	    -47.07376256	     -1.03548370	      0.97939781	     -0.24480382	     19.38109445	      2.73457755	     -6.26715413	    -22.50602233	     18.10580531	     -8.70198260	     17.65580587	     -0.21565066	     -3.61726146	    -19.08555761	     19.12232762	     -4.27579616	      3.23968141	      2.00463920	      5.50129519
      0.09000000	     -7.81615984	      6.19624481	    -47.00791939	     -1.03560250	      0.97938413	     -0.24492134	     19.41689938	      2.69318313	     -6.33721175	    -22.54041957	     18.11587313	     -8.72138766	     17.68967574	     -0.17878774	     -3.55499924	    -19.09506572	     19.09203094	     -4.23567717	      3.23527076	      1.96346388	      5.44201745
      0.10000000	     -7.80873872	      6.19964758	    -46.96923797	     -1.03582321	      0.97939322	     -0.24504148	     19.44627947	      2.68628843	     -6.33553086	    -22.57541993	     18.10878517	     -8.72832776	     17.72012370	     -0.16886859	     -3.51556594	    -19.12232291	     19.07548849	     -4.22524781	      3.20004494	      1.93983285	      5.41196416
      0.11000000	     -7.84061456	      6.25621342	    -46.86207835	     -1.03602431	      0.97929558	     -0.24526216	     19.55552823	      2.64402280	     -6.42839148	    -22.62982488	     18.12178822	     -8.76892991	     17.83515073	     -0.12765402	     -3.38426215	    -19.15648767	     19.03583986	     -4.18150793	      3.24381024	      1.89658314	      5.31072773
      0.12000000	     -7.83405756	      6.28743491	    -46.77252162	     -1.03624520	      0.97928359	     -0.24548687	     19.61466719	      2.59800603	     -6.48385493	    -22.67565110	     18.11199406	     -8.78143906	     17.90322579	     -0.08233208	     -3.30583113	    -19.19187421	     18.98730785	     -4.16484556	      3.22506385	      1.84582371	      5.22556520
      0.13000000	     -7.84790629	      6.33100513	    -46.67028542	     -1.03650614	      0.97923440	     -0.24573896	     19.70363753	      2.55807988	     -6.54199520	    -22.72766669	     18.11744477	     -8.79898618	     18.00131286	     -0.03775891	     -3.17995047	    -19.23184879	     18.94300197	     -4.14396415	      3.22761187	      1.79616736	      5.12585712
      0.14000000	     -7.88947293	      6.39131829	    -46.56783865	     -1.03679301	      0.97912670	     -0.24601125	     19.83615594	      2.52685798	     -6.59709181	    -22.79681099	     18.11852540	     -8.81986623	     18.13908889	     -0.00325284	     -3.05717031	    -19.28009779	     18.90307661	     -4.12262221	      3.26312433	      1.75989219	      5.02791876
      0.15000000	     -7.90103670	      6.43664989	    -46.48100944	     -1.03705323	      0.97908272	     -0.24621081	     19.91581447	      2.49074535	     -6.63751702	    -22.83421705	     18.10884510	     -8.83014677	     18.23281303	      0.03696765	     -2.97052852	    -19.32010885	     18.85750726	     -4.10807133	      3.26710039	      1.70667363	      4.93600226
      0.16000000	     -7.93008683	      6.48598985	    -46.40613940	     -1.03729322	      0.97900165	     -0.24636653	     20.01170117	      2.46812167	     -6.67076220	    -22.87761491	     18.11298538	     -8.84522517	     18.33554465	      0.06419261	     -2.88179555	    -19.35633263	     18.82885773	     -4.09403879	      3.29401415	      1.66886370	      4.86027463
      0.17000000	     -7.93269766	      6.49523963	    -46.38449451	     -1.03750816	      0.97899371	     -0.24639093	     20.04443058	      2.47343662	     -6.65222592	    -22.90483435	     18.10656833	     -8.84868925	     18.36359960	      0.06355635	     -2.86298753	    -19.36826064	     18.81987402	     -4.09137295	      3.27203940	      1.65013558	      4.82713838
      0.18000000	     -7.93511094	      6.49993609	    -46.37263270	     -1.03764757	      0.97899090	     -0.24631125	     20.05264416	      2.48258215	     -6.65231681	    -22.90595234	     18.10679524	     -8.84930805	     18.36967124	      0.05553705	     -2.86209512	    -19.36203323	     18.81906450	     -4.09099882	      3.26318773	      1.63303263	      4.82232556
      0.19000000	     -7.96778555	      6.56406864	    -46.33059332	     -1.03774310	      0.97886403	     -0.24627889	     20.14184318	      2.46009891	     -6.66291219	    -22.93673091	     18.12381783	     -8.88283296	     18.45456630	      0.08239686	     -2.80828150	    -19.37432287	     18.79364589	     -4.07407012	      3.33520988	      1.59803365	      4.74925630
      0.20000000	     -7.97716592	      6.56811632	    -46.33621223	     -1.03781875	      0.97883555	     -0.24612999	     20.15672574	      2.47667375	     -6.65859098	    -22.95223054	     18.12518395	     -8.88707329	     18.45118256	      0.06522175	     -2.81965113	    -19.35663508	     18.79987064	     -4.07348764	      3.33963877	      1.59978046	      4.73781239
      0.21000000	     -7.97896452	      6.57429691	    -46.34224722	     -1.03787432	      0.97880816	     -0.24596566	     20.15852267	      2.48531953	     -6.65805078	    -22.95267689	     18.12665231	     -8.88823372	     18.44897962	      0.05688434	     -2.82082677	    -19.35410707	     18.80188779	     -4.07335739	      3.34034373	      1.59266347	      4.73253295
      0.22000000	     -7.98952415	      6.58069610	    -46.35701480	     -1.03789288	      0.97877411	     -0.24576984	     20.16532799	      2.50456848	     -6.63330423	    -22.95608371	     18.13875371	     -8.89721916	     18.43738864	      0.03901619	     -2.84508640	    -19.32551099	     18.81779102	     -4.07243882	      3.35480666	      1.60413383	      4.70940274
      0.23000000	     -7.99772492	      6.58492428	    -46.38195635	     -1.03791306	      0.97874132	     -0.24554851	     20.16231761	      2.52767129	     -6.59948324	    -22.94796461	     18.15310621	     -8.91133252	     18.42525736	      0.01780768	     -2.87648692	    -19.30857562	     18.83905212	     -4.07094897	      3.36513589	      1.61536662	      4.70547248
      0.24000000	     -7.99346026	      6.57522757	    -46.42572810	     -1.03796276	      0.97874069	     -0.24529758	     20.13655595	      2.56011364	     -6.54459093	    -22.93174526	     18.15491216	     -8.94306993	     18.39982169	     -0.01259721	     -2.93385184	    -19.30768815	     18.86661567	     -4.06446045	      3.34888000	      1.62669868	      4.73859378
      0.25000000	     -7.99352429	      6.57766341	    -46.44735275	     -1.03797474	      0.97872611	     -0.24507916	     20.13040559	      2.57281233	     -6.53520868	    -22.93231179	     18.15998516	     -8.95110661	     18.37942287	     -0.02619296	     -2.95275195	    -19.28751724	     18.87322045	     -4.06218654	      3.34600322	      1.63599872	      4.72110530
      0.26000000	     -7.98866973	      6.56692823	    -46.48848740	     -1.03799102	      0.97873287	     -0.24480947	     20.09882487	      2.60161877	     -6.49647568	    -22.91309084	     18.17716471	     -8.96924145	     18.34239479	     -0.05431989	     -3.00318009	    -19.26987322	     18.89728379	     -4.05932146	      3.33057094	      1.65577572	      4.72252563
      0.27000000	     -7.96516695	      6.53355462	    -46.54722343	     -1.03806397	      0.97878095	     -0.24452833	     20.03608650	      2.64121999	     -6.43771391	    -22.88854203	     18.17639687	     -8.99771906	     18.28868035	     -0.09274214	     -3.07033742	    -19.28058838	     18.92756763	     -4.05369443	      3.26688715	      1.67231864	      4.77019056
      0.28000000	     -7.96433303	      6.54413026	    -46.56816502	     -1.03810634	      0.97875251	     -0.24430592	     20.03351145	      2.64670486	     -6.44176184	    -22.88401372	     18.17756371	     -8.99894072	     18.28432572	     -0.09912060	     -3.06986518	    -19.27993732	     18.92851730	     -4.05323043	      3.26139529	      1.67137260	      4.76280210
      0.29000000	     -7.93076445	      6.48688419	    -46.64517374	     -1.03817199	      0.97884442	     -0.24395693	     19.92829640	      2.70550766	     -6.36049655	    -22.83319020	     18.19203792	     -9.04330203	     18.19214870	     -0.15668087	     -3.17842605	    -19.27410403	     18.97870278	     -4.04527971	      3.17196557	      1.70387209	      4.81296266
